<!--?xml version="1.0" standalone="no"?-->
              <svg id="sw-js-blob-svg" viewBox="0 0 100 100" xmlns="http://www.w3.org/2000/svg" version="1.1">
                    <defs> 
                        <linearGradient id="sw-gradient" x1="0" x2="1" y1="1" y2="0">
                            <stop id="stop1" stop-color="#63C2EB" offset="0%"></stop>
                            <stop id="stop2" stop-color="#2491c0" offset="100%"></stop>
                        </linearGradient>
                    </defs>
                <path fill="url(#sw-gradient)" d="M19.9,-34.1C25.3,-31.2,29.1,-25.1,33.6,-18.9C38.2,-12.6,43.6,-6.3,42.6,-0.6C41.6,5.2,34.4,10.4,28.8,14.9C23.2,19.3,19.3,23,14.8,26.4C10.3,29.8,5.1,33.1,-1.3,35.3C-7.7,37.5,-15.4,38.8,-20.3,35.6C-25.2,32.4,-27.3,24.7,-29,18C-30.7,11.3,-32,5.7,-32.9,-0.5C-33.8,-6.7,-34.3,-13.4,-32.7,-20.2C-31.1,-27.1,-27.4,-34,-21.6,-36.8C-15.8,-39.5,-7.9,-38,-0.4,-37.4C7.2,-36.7,14.4,-37.1,19.9,-34.1Z" width="100%" height="100%" transform="translate(50 50)" stroke-width="0" style="transition: all 0.3s ease 0s;"></path>
              </svg>